<svg width="24" height="24" viewBox="0 0 24 24" fill="none" xmlns="http://www.w3.org/2000/svg">
<path d="M21 18C21 20.2091 19.2091 22 17 22H7C4.79086 22 3 20.2091 3 18V9.75H21V18ZM15.4941 12.4355C15.1825 12.1628 14.7083 12.1943 14.4355 12.5059L11.5654 15.7861C11.4773 15.8866 11.3261 15.8999 11.2217 15.8164L9.46875 14.4141C9.1453 14.1553 8.67281 14.2078 8.41406 14.5312C8.15532 14.8547 8.20783 15.3272 8.53125 15.5859L10.2842 16.9883C11.0155 17.5732 12.0777 17.4782 12.6943 16.7734L15.5645 13.4941C15.8372 13.1825 15.8058 12.7083 15.4941 12.4355ZM16 1.25C16.4142 1.25 16.75 1.58579 16.75 2V3.5H17C19.2091 3.5 21 5.29086 21 7.5V8.25H3V7.5C3 5.29086 4.79086 3.5 7 3.5H7.25V2C7.25 1.58579 7.58579 1.25 8 1.25C8.41421 1.25 8.75 1.58579 8.75 2V3.5H15.25V2C15.25 1.58579 15.5858 1.25 16 1.25Z" fill="#4A7155"/>
</svg>
