<svg width="24" height="24" viewBox="0 0 24 24" fill="none" xmlns="http://www.w3.org/2000/svg">
<path d="M21 18C21 20.2091 19.2091 22 17 22H7C4.79086 22 3 20.2091 3 18V9.75H21V18ZM12 11.25C11.5858 11.25 11.25 11.5858 11.25 12V14.25H9C8.58579 14.25 8.25 14.5858 8.25 15C8.25 15.4142 8.58579 15.75 9 15.75H11.25V18C11.25 18.4142 11.5858 18.75 12 18.75C12.4142 18.75 12.75 18.4142 12.75 18V15.75H15C15.4142 15.75 15.75 15.4142 15.75 15C15.75 14.5858 15.4142 14.25 15 14.25H12.75V12C12.75 11.5858 12.4142 11.25 12 11.25ZM16 1.25C16.4142 1.25 16.75 1.58579 16.75 2V3.5H17C19.2091 3.5 21 5.29086 21 7.5V8.25H3V7.5C3 5.29086 4.79086 3.5 7 3.5H7.25V2C7.25 1.58579 7.58579 1.25 8 1.25C8.41421 1.25 8.75 1.58579 8.75 2V3.5H15.25V2C15.25 1.58579 15.5858 1.25 16 1.25Z" fill="#4A7155"/>
</svg>
