<svg width="24" height="24" viewBox="0 0 24 24" fill="none" xmlns="http://www.w3.org/2000/svg">
<path d="M7.54894 16.2859C7.81263 16.1188 8.15726 16.157 8.37805 16.3777L11.628 19.6287C11.8466 19.8473 11.89 20.1859 11.7325 20.452C11.6619 20.5712 11.5569 20.6687 11.4269 20.7166C10.3299 21.1206 9.01134 20.8518 8.08801 19.9285C7.16083 19.0014 6.89452 17.6757 7.30578 16.576C7.35119 16.4548 7.43963 16.3553 7.54894 16.2859ZM16.8986 3.66485C17.785 2.77838 19.223 2.77838 20.1095 3.66485C20.9957 4.55129 20.9957 5.98841 20.1095 6.87481L20.0362 6.94806C21.0324 8.98157 20.9206 11.3358 19.589 13.0086L17.1193 16.1111C16.6744 16.6699 16.4078 17.3604 16.3478 18.1072C16.2119 19.7939 14.1737 20.3559 12.881 19.0633L4.71008 10.8934C3.41738 9.6005 3.98016 7.56214 5.66711 7.42657C6.41392 7.36654 7.10449 7.0999 7.6632 6.65509L10.7648 4.18438C12.4375 2.85273 14.7918 2.74203 16.8253 3.73809L16.8986 3.66485Z" fill="#28303F" stroke="#28303F"/>
</svg>
