<svg width="86" height="90" viewBox="0 0 86 90" fill="none" xmlns="http://www.w3.org/2000/svg">
<path d="M44.4604 89.4236C44.4691 89.4236 44.4745 89.414 44.4701 89.4065C44.1182 88.7888 44.1354 88.242 44.0726 87.7396C43.3754 81.8818 42.5968 76.042 41.3202 70.2838C40.6321 67.1784 39.7267 64.1453 38.432 61.23C35.8426 55.4084 31.3701 51.6963 25.467 49.5506C20.2882 47.6674 14.8921 46.7167 9.46884 45.9381C6.39054 45.4944 3.30318 45.1051 0.224878 44.6886C-0.109867 44.6515 -0.0524557 44.2996 0.275378 44.2224C0.681681 44.1267 1.10876 44.1405 1.51052 44.0911C8.25562 43.2491 15.0007 42.4252 21.5738 40.6325C25.7295 39.5008 29.6951 37.9617 33.0359 35.0916C36.2048 32.3664 38.1604 28.8897 39.5276 25.0237C41.4017 19.7454 42.3161 14.2587 43.1129 8.74496C43.5203 5.92922 43.8462 3.11348 44.2084 0.288689C44.2609 -0.0614001 44.6434 -0.112107 44.6458 0.241891C44.6461 0.28013 44.6473 0.317333 44.652 0.352059C45.494 6.99757 46.2726 13.6612 47.8842 20.1799C49.0069 24.7069 50.5098 29.0889 53.5248 32.7829C56.0055 35.8159 59.2106 37.7896 62.8049 39.1839C67.6306 41.0581 72.6917 42.0178 77.789 42.7873C81.4558 43.3487 85.1226 43.91 88.8166 44.2541C89.0383 44.2679 89.0409 44.5901 88.8261 44.6469C88.2961 44.787 87.8065 44.7847 87.3317 44.8516C79.808 45.8747 72.23 46.6714 64.9507 49.0254C61.0847 50.2749 57.5084 52.0223 54.6203 54.9557C52.1124 57.4998 50.4917 60.5872 49.2966 63.919C47.5764 68.7356 46.6891 73.7424 45.9105 78.7763C45.3854 82.1715 44.8783 85.5757 44.5977 89.0071C44.5977 89.0869 44.5456 89.1667 44.4499 89.4081C44.447 89.4155 44.4524 89.4236 44.4604 89.4236Z" fill="#D9D9FF"/>
</svg>
